<svg xmlns="http://www.w3.org/2000/svg" width="30.52" height="17.593" viewBox="0 0 30.52 17.593"><defs><style>.a{fill:#fff;}</style></defs><g transform="translate(0 0)"><g transform="translate(0 0)"><path class="a" d="M25.943,115.212a4.6,4.6,0,0,0-1.419.225l-.483-1.05a5.628,5.628,0,0,1,1.393-.18h2.035a.506.506,0,0,0,.509-.5c0-3.749-3.09-7.037-6.613-7.037a.511.511,0,0,0-.418.216.5.5,0,0,0-.058.463l.239.629-1.165-.288a.507.507,0,0,0-.616.366.5.5,0,0,0,.37.61l1.845.456.447,1.177c-2.02-.723-5.014-1.364-7.108-.5a3.712,3.712,0,0,0-2,1.863l-4.255-.421v-.55a.5.5,0,0,0-.409-.493L3.153,109.19a.513.513,0,0,0-.5.188.5.5,0,0,0-.051.53l.755,1.492-2.5.822a.5.5,0,0,0-.343.406l-.509,3.519a.5.5,0,0,0,.314.537.512.512,0,0,0,.6-.173,5.843,5.843,0,0,1,4.674-2.3,5.592,5.592,0,0,1,5.386,4.05l-1,.18a4.513,4.513,0,1,0,.194,1.3c0-.1-.009-.206-.016-.309l1.008-.181c.014.161.025.324.025.49a.506.506,0,0,0,.509.5h7.63a.506.506,0,0,0,.509-.5,5.529,5.529,0,0,1,3.241-5.009l.52,1.13a4.511,4.511,0,0,0-2.235,3.879,4.578,4.578,0,1,0,4.578-4.524ZM5.6,123.255a3.519,3.519,0,1,1,3.374-4.635l-3.465.622a.5.5,0,0,0,.091,1,.517.517,0,0,0,.092-.008l3.463-.622c0,.043.007.084.007.128A3.544,3.544,0,0,1,5.6,123.255Zm13.245-4.021H12.19A6.59,6.59,0,0,0,5.6,113.2a7.016,7.016,0,0,0-4.358,1.53l.239-1.654,2.754-.907a.507.507,0,0,0,.309-.285.5.5,0,0,0-.015-.417l-.552-1.091,3.658.723v.593a.505.505,0,0,0,.458.5l5.087.5a.509.509,0,0,0,.529-.327,2.717,2.717,0,0,1,1.589-1.645c2.2-.909,5.793.207,7.387.924a.512.512,0,0,0,.558-.09.5.5,0,0,0,.129-.544l-1.245-3.281a5.717,5.717,0,0,1,3.717,2.452h-.4a.5.5,0,1,0,0,1.005h.976a6.146,6.146,0,0,1,.528,2.011h-1.5A6.59,6.59,0,0,0,18.841,119.233Zm7.1,4.021a3.544,3.544,0,0,1-3.561-3.519,3.506,3.506,0,0,1,1.641-2.959l1.457,3.167a.511.511,0,0,0,.673.249.5.5,0,0,0,.252-.666l-1.457-3.168a3.586,3.586,0,0,1,.994-.142,3.519,3.519,0,1,1,0,7.037Z" transform="translate(-0.001 -106.667)"/></g></g></svg>