<svg xmlns="http://www.w3.org/2000/svg" width="56" height="56" viewBox="0 0 56 56"><defs><style>.a{fill:#ff6498;}.b{opacity:0.1;}.c{fill:#fff;}.d{fill:none;stroke:#fff;stroke-miterlimit:10;}.e{fill:#ebf0f3;}.f{fill:#ffcede;}.g{fill:#ce3568;}.h{fill:#060c17;}</style></defs><g transform="translate(-6 -6)"><circle class="a" cx="28" cy="28" r="28" transform="translate(6 6)"/><path class="b" d="M33.154,58.418s.157.152.435.418L50.935,76.151a27.859,27.859,0,0,0,20.913-22.79L53.921,35.411l-.009,0A8.122,8.122,0,1,0,42.53,47l-1.466,2.97L30.753,39.59c-.03-.03-.061-.061-.091-.087l-.157-.157c-.074-.07-.144-.144-.217-.213a1.327,1.327,0,0,0-1.431-.231,7.559,7.559,0,0,0-.744.378c-.026.017-.052.03-.074.044-.139.083-.278.17-.422.27a6.972,6.972,0,0,0-1.744,1.7,7.473,7.473,0,0,0-1.222,2.9c-.818,4.079,6.337,11.938,8.111,13.809.248.261.391.409.391.409Z" transform="translate(-10.503 -15.275)"/><path class="c" d="M52.211,70.4c.886-2.393-6.7-3.716-7.945-3.719a.81.81,0,0,1-.394-.1l-.3.449-.513.761a1.465,1.465,0,0,1-2.072.107l-2.535-2.207a48.389,48.389,0,0,1-4.727-4.728L31.53,58.445a1.465,1.465,0,0,1,.107-2.072l.761-.513.749-.5a.883.883,0,0,1-.021-.208,10.789,10.789,0,0,0-1.336-4.57,7.748,7.748,0,0,0-3.237-3.589c-.025-.015-.044-.034-.066-.051a7.371,7.371,0,0,0-.869.512,7.1,7.1,0,0,0-2.964,4.607c-.932,4.653,8.5,14.216,8.5,14.216s9.563,9.437,14.216,8.5a7.1,7.1,0,0,0,4.607-2.964,7.4,7.4,0,0,0,.395-.643.671.671,0,0,1-.163-.77Z" transform="translate(-10.503 -23.134)"/><path class="c" d="M34.223,46.618a14.1,14.1,0,0,1,3.849,6.625,1.333,1.333,0,0,1-.546,1.44l-1.192.8a19.892,19.892,0,0,0-4.782-8.409,7.451,7.451,0,0,1,1.242-.689,1.325,1.325,0,0,1,1.428.231Z" transform="translate(-14.439 -22.758)"/><path class="c" d="M77.1,92.937a14.1,14.1,0,0,0-6.625-3.849,1.333,1.333,0,0,0-1.44.546l-.8,1.192a19.892,19.892,0,0,1,8.409,4.782,7.45,7.45,0,0,0,.689-1.242,1.325,1.325,0,0,0-.231-1.428Z" transform="translate(-35.169 -46.927)"/><path class="d" d="M82.791,105.4a4.671,4.671,0,0,0,2.311,3.227,2.481,2.481,0,0,0,1.291.359,1.305,1.305,0,0,0,1.114-.659,1.271,1.271,0,0,0-.513-1.557,2.019,2.019,0,0,0-1.731-.122,2.877,2.877,0,0,0,1.453,5.549" transform="translate(-43.394 -56.171)"/><path class="e" d="M66.629,33.036A8.119,8.119,0,0,0,60.986,47l-3.744,7.585,6.043-6.024a8.122,8.122,0,1,0,3.343-15.523Z" transform="translate(-28.956 -15.277)"/><path class="f" d="M78.507,49.812l-1.1.37-1.018-.37V46.926h2.121Z" transform="translate(-39.774 -23.127)"/><path class="a" d="M77.033,53.443A2.186,2.186,0,0,0,76.466,53L75.1,52.247l-.223-.122-.13.026-.009.07-1.264.864-1.193-.858-.01-.076-.132-.026-.22.12-1.37.75a2.183,2.183,0,0,0-1.133,1.913v1.22H77.6v-1.22a2.179,2.179,0,0,0-.566-1.466Z" transform="translate(-35.835 -26.064)"/><g transform="translate(35.837 20.964)"><ellipse class="f" cx="0.419" cy="0.201" rx="0.419" ry="0.201" transform="translate(3.22 2.728) rotate(-80.679)"/><ellipse class="f" cx="0.201" cy="0.419" rx="0.201" ry="0.419" transform="translate(0 1.917) rotate(-4.131)"/><path class="f" d="M78.328,43.19l-.062-1.845-.219-.595-1.278-.345-1.278.345-.219.595-.062,1.845a1.466,1.466,0,0,0,.094.776,2.408,2.408,0,0,0,.542.7,1.575,1.575,0,0,0,1.848,0,2.408,2.408,0,0,0,.542-.7,1.466,1.466,0,0,0,.094-.776Z" transform="translate(-74.936 -40.406)"/></g><path class="g" d="M78.006,54.405v2.452h.319V54.405c.042-.661.273-.848.273-.848l-.134-.145-.285.34-.239-.34-.205.145S77.964,53.745,78.006,54.405Z" transform="translate(-40.536 -26.793)"/><path class="h" d="M77.629,40c0,.258.093,1.315.109,1.844h.137a.877.877,0,0,1,.028-.507,1.12,1.12,0,0,0,.324-1.086c-.07-.8-.363-.959-.363-.959s.011-.689-.532-.721a3.917,3.917,0,0,0-2.249.285c-.526.416-.649.679-.687.85a5.563,5.563,0,0,0,.207,1.829,1.814,1.814,0,0,0,.177.351l.089.009a7.089,7.089,0,0,1,.07-1.434c.113-.412.514-.382,1.236-.451s.525-.359.9-.273.555-.014.551.261Z" transform="translate(-38.644 -18.388)"/><g transform="translate(36.296 25.519)"><path class="g" d="M80.128,50.88l-.873,1.2.694.748.487-1.408Z" transform="translate(-77.692 -50.88)"/><path class="g" d="M75.969,50.88l.873,1.2-.694.748-.487-1.408Z" transform="translate(-75.661 -50.88)"/></g></g></svg>