<svg xmlns="http://www.w3.org/2000/svg" width="17.15" height="20.909" viewBox="0 0 17.15 20.909"><defs><style>.a{fill:#fff;}</style></defs><path class="a" d="M51.708,134.05c-3.112-.018-5.686-6.37-5.686-9.606,0-5.285,3.964-6.442,5.492-6.442a6.32,6.32,0,0,1,2.072.51,4.632,4.632,0,0,0,1.183.339,3.682,3.682,0,0,0,.849-.275,6.8,6.8,0,0,1,2.559-.619h.006a5.244,5.244,0,0,1,4.389,2.216l.32.481-.461.348a3.876,3.876,0,0,0-1.859,3.2,3.608,3.608,0,0,0,2.013,3.335c.288.173.587.352.587.744,0,.255-2.039,5.741-5,5.741a4.021,4.021,0,0,1-1.688-.41,3.423,3.423,0,0,0-1.5-.362,3.865,3.865,0,0,0-1.19.322,5.827,5.827,0,0,1-2.064.482Z" transform="translate(-46.022 -113.141)"/><path class="a" d="M259.083,0c.077,2.78-1.911,4.709-3.9,4.588A4.43,4.43,0,0,1,259.083,0Z" transform="translate(-246.614)"/></svg>