<svg xmlns="http://www.w3.org/2000/svg" width="43.686" height="43.686" viewBox="0 0 43.686 43.686"><defs><style>.a{fill:#4dff95;}.b{fill:#fff;}</style></defs><path class="a" d="M291.4,508.668q-.273.044-.548.082Q291.13,508.712,291.4,508.668Zm0,0" transform="translate(-266.038 -465.267)"/><path class="a" d="M299.6,507.793l-.261.046Zm0,0" transform="translate(-273.799 -464.466)"/><path class="a" d="M278.252,510.34q-.32.036-.642.063Q277.932,510.376,278.252,510.34Zm0,0" transform="translate(-253.923 -466.796)"/><path class="a" d="M286.754,509.738l-.308.038Zm0,0" transform="translate(-262.005 -466.245)"/><path class="a" d="M306.895,506.41l-.231.048Zm0,0" transform="translate(-280.498 -463.201)"/><path class="a" d="M324.67,502.113l-.186.052Zm0,0" transform="translate(-296.798 -459.271)"/><path class="a" d="M319.262,503.543l-.2.053Zm0,0" transform="translate(-291.836 -460.579)"/><path class="a" d="M312.282,505.254l-.215.048Zm0,0" transform="translate(-285.44 -462.144)"/><path class="a" d="M273.825,511.09l-.345.026Zm0,0" transform="translate(-250.146 -467.482)"/><path class="b" d="M43.686,21.843A21.843,21.843,0,1,0,21.843,43.686c.128,0,.256,0,.384,0v-17H17.534V21.208h4.693V17.183c0-4.667,2.849-7.208,7.013-7.208a38.63,38.63,0,0,1,4.207.215v4.878H30.576c-2.265,0-2.7,1.077-2.7,2.656v3.483h5.416l-.706,5.469h-4.71V42.842a21.855,21.855,0,0,0,15.814-21Zm0,0"/><path class="a" d="M265.575,511.43q-.341.022-.685.034Q265.234,511.453,265.575,511.43Zm0,0" transform="translate(-242.289 -467.793)"/><path class="a" d="M260.867,511.836q-.181.006-.363.009Q260.686,511.842,260.867,511.836Zm0,0" transform="translate(-238.277 -468.164)"/></svg>