<svg xmlns="http://www.w3.org/2000/svg" width="43.298" height="43.298" viewBox="0 0 43.298 43.298"><defs><style>.a{fill:#1976d2;}.b{fill:#fafafa;}</style></defs><path class="a" d="M37.886,0H5.412A5.418,5.418,0,0,0,0,5.412V37.886A5.418,5.418,0,0,0,5.412,43.3H37.886A5.418,5.418,0,0,0,43.3,37.886V5.412A5.418,5.418,0,0,0,37.886,0Z"/><path class="b" d="M212.3,109.531h-6.765v-5.412c0-1.494,1.212-1.353,2.706-1.353h2.706V96h-5.412a8.118,8.118,0,0,0-8.118,8.118v5.412H192V116.3h5.412V131.18h8.118V116.3h4.059Z" transform="translate(-175.763 -87.882)"/></svg>