<svg xmlns="http://www.w3.org/2000/svg" xmlns:xlink="http://www.w3.org/1999/xlink" width="43.297" height="43.297" viewBox="0 0 43.297 43.297"><defs><style>.a{fill:url(#a);}.b{fill:url(#b);}.c{fill:url(#c);}.d{fill:url(#d);}.e{fill:url(#e);}.f{fill:url(#f);}.g{fill:url(#g);}.h{fill:url(#h);}.i{fill:#fff;}</style><radialGradient id="a" cx="0.205" cy="0.874" r="1.103" gradientTransform="translate(0)" gradientUnits="objectBoundingBox"><stop offset="0" stop-color="#fae100"/><stop offset="0.054" stop-color="#fadc04"/><stop offset="0.117" stop-color="#fbce0e"/><stop offset="0.183" stop-color="#fcb720"/><stop offset="0.251" stop-color="#fe9838"/><stop offset="0.305" stop-color="#ff7950"/><stop offset="0.492" stop-color="#ff1c74"/><stop offset="1" stop-color="#6c1cd1"/></radialGradient><linearGradient id="b" x1="0.369" y1="0.426" x2="-1.54" y2="-0.648" gradientUnits="objectBoundingBox"><stop offset="0" stop-color="#a1b5d8" stop-opacity="0"/><stop offset="0.309" stop-color="#90a2bd" stop-opacity="0.31"/><stop offset="0.755" stop-color="#7c8b9c" stop-opacity="0.757"/><stop offset="1" stop-color="#748290"/></linearGradient><linearGradient id="c" x1="0.5" y1="0.413" x2="0.5" y2="1.193" gradientUnits="objectBoundingBox"><stop offset="0" stop-color="#fae100" stop-opacity="0"/><stop offset="0.307" stop-color="#fca800" stop-opacity="0.306"/><stop offset="0.627" stop-color="#fe7300" stop-opacity="0.627"/><stop offset="0.868" stop-color="#ff5200" stop-opacity="0.867"/><stop offset="1" stop-color="#ff4500"/></linearGradient><linearGradient id="d" x1="0.316" y1="0.311" x2="0.012" y2="0.005" gradientUnits="objectBoundingBox"><stop offset="0" stop-color="#833ab4" stop-opacity="0"/><stop offset="1" stop-color="#833ab4"/></linearGradient><linearGradient id="e" x1="0.582" y1="0.887" x2="0.418" y2="0.113" xlink:href="#d"/><linearGradient id="f" x1="0.605" y1="0.605" x2="-0.16" y2="-0.16" xlink:href="#d"/><linearGradient id="g" x1="0.376" y1="0.332" x2="-0.072" y2="-0.063" xlink:href="#d"/><linearGradient id="h" x1="0.816" y1="0.182" x2="0.172" y2="0.835" gradientUnits="objectBoundingBox"><stop offset="0" stop-color="#833ab4"/><stop offset="0.092" stop-color="#9c3495"/><stop offset="0.293" stop-color="#dc2546"/><stop offset="0.392" stop-color="#fd1d1d"/><stop offset="0.559" stop-color="#fc6831"/><stop offset="0.689" stop-color="#fc9b40"/><stop offset="0.752" stop-color="#fcaf45"/><stop offset="0.781" stop-color="#fdb750"/><stop offset="0.866" stop-color="#fecb6a"/><stop offset="0.942" stop-color="#ffd87a"/><stop offset="1" stop-color="#ffdc80"/></linearGradient></defs><path class="a" d="M42.556,7.744a7.883,7.883,0,0,0-7-7,130.774,130.774,0,0,0-27.808,0,7.884,7.884,0,0,0-7,7,130.774,130.774,0,0,0,0,27.808,7.884,7.884,0,0,0,7,7,130.777,130.777,0,0,0,27.809,0,7.884,7.884,0,0,0,7-7,130.773,130.773,0,0,0,0-27.808Zm0,0" transform="translate(0.001 0)"/><path class="b" d="M66.6,35.706a7,7,0,0,0-6.214-6.215,116.09,116.09,0,0,0-24.677,0,7,7,0,0,0-6.215,6.215,116.087,116.087,0,0,0,0,24.676A7,7,0,0,0,35.706,66.6a116.043,116.043,0,0,0,24.676,0A7,7,0,0,0,66.6,60.383a116.043,116.043,0,0,0,0-24.676Zm0,0" transform="translate(-26.396 -26.396)"/><path class="c" d="M7.672,409.8q.045.449.092.9a7.884,7.884,0,0,0,7,7,130.775,130.775,0,0,0,27.808,0,7.884,7.884,0,0,0,7-7q.048-.449.093-.9Zm0,0" transform="translate(-7.023 -375.15)"/><path class="d" d="M129.6,124.641a130.891,130.891,0,0,0,.737-14.943l-9.9-9.9a7.088,7.088,0,0,0-5.164-2.369c-4.364-.157-8.742-.149-13.107,0a7,7,0,0,0-6.81,6.143c-.115.632-.183,1.273-.274,1.91v10.5c.05.34.123.679.146,1.021a7.632,7.632,0,0,0,2.474,5.306l10.071,10.071a130.894,130.894,0,0,0,14.821-.738,7.884,7.884,0,0,0,7-7Zm0,0" transform="translate(-87.049 -89.088)"/><path class="e" d="M158.133,151.6a7.884,7.884,0,0,1-7,7,130.963,130.963,0,0,1-14.82.738l-10.056-10.056a7.051,7.051,0,0,0,4.449,1.708c4.364.164,8.743.16,13.106,0a7.013,7.013,0,0,0,6.926-7.011c.131-4.191.131-8.392,0-12.583a7.305,7.305,0,0,0-1.755-4.635l9.891,9.89a131.126,131.126,0,0,1-.737,14.943Zm0,0" transform="translate(-115.577 -116.046)"/><path class="f" d="M186.036,176.239a6.934,6.934,0,1,0-9.8,9.8l16.045,16.045q1.274-.111,2.547-.247a7.884,7.884,0,0,0,7-7q.136-1.273.247-2.547Zm0,0" transform="translate(-159.278 -159.279)"/><path class="g" d="M339.16,164.307l-12.913-12.913a1.648,1.648,0,1,0-2.309,2.309L338.929,168.7Q339.082,166.5,339.16,164.307Zm0,0" transform="translate(-295.947 -137.995)"/><path class="h" d="M95.09,105.485c.09-.637.159-1.277.274-1.91a7,7,0,0,1,6.81-6.143c4.365-.15,8.743-.158,13.107,0a7.014,7.014,0,0,1,6.926,7.01q.2,6.286,0,12.583a7.013,7.013,0,0,1-6.926,7.01c-4.364.158-8.743.162-13.107,0A7.135,7.135,0,0,1,95.236,117c-.023-.342-.1-.681-.146-1.021v-10.5ZM108.7,121.7c2,0,4,.06,5.991-.014,3.127-.116,5.051-1.982,5.124-5.107q.136-5.839,0-11.685a4.842,4.842,0,0,0-5.124-5.1q-5.951-.126-11.907,0a4.813,4.813,0,0,0-5.116,5.026q-.161,5.913,0,11.834c.084,3.089,2.013,4.917,5.116,5.032,1.969.073,3.944.014,5.916.014Zm0,0" transform="translate(-87.048 -89.087)"/><g transform="translate(8.041 8.23)"><path class="i" d="M95.09,105.485c.09-.637.159-1.277.274-1.91a7,7,0,0,1,6.81-6.143c4.365-.15,8.743-.158,13.107,0a7.014,7.014,0,0,1,6.926,7.01q.2,6.286,0,12.583a7.013,7.013,0,0,1-6.926,7.01c-4.364.158-8.743.162-13.107,0A7.135,7.135,0,0,1,95.236,117c-.023-.342-.1-.681-.146-1.021v-10.5ZM108.7,121.7c2,0,4,.06,5.991-.014,3.127-.116,5.051-1.982,5.124-5.107q.136-5.839,0-11.685a4.842,4.842,0,0,0-5.124-5.1q-5.951-.126-11.907,0a4.813,4.813,0,0,0-5.116,5.026q-.161,5.913,0,11.834c.084,3.089,2.013,4.917,5.116,5.032,1.969.073,3.944.014,5.916.014Zm0,0" transform="translate(-95.09 -97.317)"/><path class="i" d="M180.927,174a6.935,6.935,0,1,0,6.935,6.935A6.935,6.935,0,0,0,180.927,174Zm0,11.482a4.547,4.547,0,1,1,4.547-4.547A4.547,4.547,0,0,1,180.927,185.478Zm0,0" transform="translate(-167.32 -167.512)"/><path class="i" d="M326.585,152.392a1.65,1.65,0,1,1-1.65-1.65A1.65,1.65,0,0,1,326.585,152.392Zm0,0" transform="translate(-303.988 -146.224)"/></g></svg>