<svg xmlns="http://www.w3.org/2000/svg" width="44.031" height="44.031" viewBox="0 0 44.031 44.031"><defs><style>.a{fill:#fff;}</style></defs><path class="a" d="M215.428,211.214A4.214,4.214,0,1,1,211.214,207,4.214,4.214,0,0,1,215.428,211.214Zm0,0" transform="translate(-189.199 -189.199)"/><path class="a" d="M155.7,138.4a4.186,4.186,0,0,0-2.4-2.4,7,7,0,0,0-2.347-.435c-1.333-.061-1.733-.074-5.108-.074s-3.775.013-5.108.074a7,7,0,0,0-2.347.435,4.188,4.188,0,0,0-2.4,2.4,7,7,0,0,0-.435,2.347c-.061,1.333-.074,1.733-.074,5.108s.013,3.775.074,5.108a7,7,0,0,0,.435,2.347,4.186,4.186,0,0,0,2.4,2.4,6.986,6.986,0,0,0,2.347.435c1.333.061,1.732.074,5.108.074s3.776-.013,5.108-.074a6.986,6.986,0,0,0,2.347-.435,4.186,4.186,0,0,0,2.4-2.4,7,7,0,0,0,.435-2.347c.061-1.333.074-1.733.074-5.108s-.013-3.775-.074-5.108A6.986,6.986,0,0,0,155.7,138.4Zm-9.855,13.947a6.491,6.491,0,1,1,6.491-6.491A6.491,6.491,0,0,1,145.849,152.344Zm6.748-11.723a1.517,1.517,0,1,1,1.517-1.517A1.517,1.517,0,0,1,152.6,140.621Zm0,0" transform="translate(-123.833 -123.837)"/><path class="a" d="M22.015,0A22.015,22.015,0,1,0,44.031,22.015,22.018,22.018,0,0,0,22.015,0ZM34.581,27.227a9.275,9.275,0,0,1-.588,3.069,6.464,6.464,0,0,1-3.7,3.7,9.281,9.281,0,0,1-3.068.588c-1.348.061-1.779.076-5.212.076s-3.864-.015-5.212-.076a9.281,9.281,0,0,1-3.068-.588,6.464,6.464,0,0,1-3.7-3.7,9.273,9.273,0,0,1-.588-3.068c-.062-1.348-.077-1.779-.077-5.212s.014-3.864.076-5.212a9.276,9.276,0,0,1,.587-3.069,6.468,6.468,0,0,1,3.7-3.7A9.284,9.284,0,0,1,16.8,9.45c1.348-.061,1.779-.076,5.212-.076s3.864.015,5.212.077a9.285,9.285,0,0,1,3.069.587,6.466,6.466,0,0,1,3.7,3.7,9.274,9.274,0,0,1,.588,3.069c.061,1.348.076,1.779.076,5.212S34.642,25.879,34.581,27.227Zm0,0"/></svg>