<svg xmlns="http://www.w3.org/2000/svg" width="55.669" height="55.669" viewBox="0 0 55.669 55.669"><defs><style>.a{fill:#ff6498;}.b{opacity:0.1;}.c{fill:#ffc2d7;}.d{fill:#fff;}</style></defs><circle class="a" cx="27.834" cy="27.834" r="27.834" transform="translate(0 0)"/><path class="b" d="M109.605,109.605a15.953,15.953,0,0,0,0,22.557l16.129,16.126a27.848,27.848,0,0,0,22.554-22.554l-16.126-16.129A15.953,15.953,0,0,0,109.605,109.605Z" transform="translate(-93.05 -93.05)"/><circle class="c" cx="15.947" cy="15.947" r="15.947" transform="translate(11.888 11.888)"/><circle class="d" cx="13.286" cy="13.286" r="13.286" transform="translate(14.548 14.548)"/><path class="a" d="M192.874,175.148v-1.821a10.828,10.828,0,0,1-6.137-2.718l1.821-2.17a8.652,8.652,0,0,0,4.316,2.17v-4.84A10.176,10.176,0,0,1,188.745,164a4.007,4.007,0,0,1-1.309-3.255,4.553,4.553,0,0,1,1.508-3.53,6.11,6.11,0,0,1,3.93-1.5v-1.247h1.6v1.272a10.428,10.428,0,0,1,5.189,1.872l-1.622,2.295a8.047,8.047,0,0,0-3.567-1.447v4.689h.075a10.117,10.117,0,0,1,4.214,1.821,4.13,4.13,0,0,1,1.348,3.33,4.528,4.528,0,0,1-1.547,3.555,6.428,6.428,0,0,1-4.091,1.5v1.8Zm-1.76-16.1a1.784,1.784,0,0,0-.635,1.4,1.759,1.759,0,0,0,.5,1.322,5.039,5.039,0,0,0,1.9.936v-4.316A2.988,2.988,0,0,0,191.114,159.047Zm5.252,10.938a1.927,1.927,0,0,0,.15-2.831,5.458,5.458,0,0,0-2.046-.96v4.489A3.49,3.49,0,0,0,196.365,169.985Z" transform="translate(-165.587 -136.974)"/></svg>