<svg xmlns="http://www.w3.org/2000/svg" width="29.957" height="30.013" viewBox="0 0 29.957 30.013"><defs><style>.a{fill:none;stroke:#fff;stroke-linecap:round;stroke-linejoin:round;stroke-width:2px;}</style></defs><path class="a" d="M30.066,22.971v4.217A2.811,2.811,0,0,1,27,30a27.816,27.816,0,0,1-12.13-4.315A27.409,27.409,0,0,1,6.438,17.25,27.816,27.816,0,0,1,2.123,5.064,2.811,2.811,0,0,1,4.92,2H9.137a2.811,2.811,0,0,1,2.811,2.418,18.047,18.047,0,0,0,.984,3.95,2.811,2.811,0,0,1-.633,2.966l-1.785,1.785a22.489,22.489,0,0,0,8.433,8.433l1.785-1.785a2.811,2.811,0,0,1,2.966-.633,18.047,18.047,0,0,0,3.95.984,2.811,2.811,0,0,1,2.418,2.853Z" transform="translate(-1.111 -1)"/></svg>