<svg xmlns="http://www.w3.org/2000/svg" width="29.612" height="17.593" viewBox="0 0 29.612 17.593"><defs><style>.a{fill:#83868b;}</style></defs><g transform="translate(0 0)"><path class="a" d="M23.675,6.256a5.946,5.946,0,0,0-2.664.631l-1.657-2.53.685-1.523h.093a2.659,2.659,0,0,0,2.528-1.8.487.487,0,0,0-.313-.618A.5.5,0,0,0,22.191.39H17.8a1.037,1.037,0,0,0-.227,2.053l1.44.27-.495,1.1H9.093l.709-2.3A.488.488,0,0,0,9.477.9.493.493,0,0,0,9.329.879H5.867a1.955,1.955,0,1,0,0,3.911h.989V3.812H5.867a.978.978,0,1,1,0-1.956H8.661L7.255,6.424a5.9,5.9,0,0,0-7.1,4.337,5.828,5.828,0,0,0,4.388,7.012,5.9,5.9,0,0,0,7.1-4.336A5.813,5.813,0,0,0,8.195,6.727L8.606,5.39l5.064,6.075A1.935,1.935,0,0,0,14.1,14.19a1.989,1.989,0,0,0,2.758-.423,1.94,1.94,0,0,0,.319-.668h.654a5.932,5.932,0,1,0,5.847-6.844ZM7.321,9.568a2.976,2.976,0,0,1,1.171,4.074A3.05,3.05,0,0,1,4.37,14.8,2.976,2.976,0,0,1,3.2,10.725a3.043,3.043,0,0,1,3.19-1.488l-1,3.231.947.284Zm3.492,2.554a4.966,4.966,0,0,1-9.931.037A4.936,4.936,0,0,1,5.829,7.233a5.023,5.023,0,0,1,1.138.126l-.288.935a3.984,3.984,0,0,0-4.733,3.02A3.937,3.937,0,0,0,5,15.992a3.984,3.984,0,0,0,4.733-3.02A3.923,3.923,0,0,0,7.613,8.618L7.9,7.673A4.889,4.889,0,0,1,10.813,12.122Zm13.771.223L22.641,9.376A2.979,2.979,0,0,1,26.46,11.1a2.923,2.923,0,0,1-1.743,3.773A2.978,2.978,0,0,1,20.9,13.149l-.019-.05h3.29a.492.492,0,0,0,.494-.489A.483.483,0,0,0,24.585,12.345Zm-1.324-.223H20.707a2.915,2.915,0,0,1,1.075-2.257ZM17.785,1.486a.06.06,0,0,1,.015-.119h3.522a1.684,1.684,0,0,1-1.187.489h-.368Zm-8.4,3.3h8.689l-2.646,5.883c-.055,0-.109-.017-.166-.017a1.976,1.976,0,0,0-.832.188Zm5.877,8.8a.975.975,0,0,1-.989-.961.961.961,0,0,1,.065-.357l.544.651a.5.5,0,0,0,.38.178h.852A.988.988,0,0,1,15.265,13.588Zm.234-1.466-.4-.473a.969.969,0,0,1,.162-.016.988.988,0,0,1,.852.489Zm2.24,0h-.565a1.956,1.956,0,0,0-.8-1.132l2.506-5.565L20.171,7.4A5.834,5.834,0,0,0,17.739,12.122Zm2.968-3.9.537.821a3.884,3.884,0,0,0-1.526,3.08h-.99A4.861,4.861,0,0,1,20.707,8.221Zm2.968,8.789A4.941,4.941,0,0,1,18.827,13.1h1.02a3.962,3.962,0,0,0,4.821,2.81,3.907,3.907,0,0,0,2.843-4.764,3.98,3.98,0,0,0-5.418-2.606l-.541-.827a4.97,4.97,0,0,1,6.59,2.311A4.861,4.861,0,0,1,25.8,16.535,4.988,4.988,0,0,1,23.675,17.01Zm0,0" transform="translate(0 -0.39)"/></g></svg>