<svg xmlns="http://www.w3.org/2000/svg" width="43.894" height="43.894" viewBox="0 0 43.894 43.894"><defs><style>.a{fill:#fff;}</style></defs><path class="a" d="M21.947,0A21.947,21.947,0,1,0,43.894,21.947,21.949,21.949,0,0,0,21.947,0ZM31.967,17.112q.015.324.014.651A14.235,14.235,0,0,1,17.649,32.1h0a14.259,14.259,0,0,1-7.721-2.263,10.245,10.245,0,0,0,1.2.07,10.108,10.108,0,0,0,6.257-2.156,5.043,5.043,0,0,1-4.706-3.5,5.021,5.021,0,0,0,2.275-.086,5.039,5.039,0,0,1-4.041-4.938c0-.023,0-.043,0-.064a5,5,0,0,0,2.282.63,5.042,5.042,0,0,1-1.56-6.725A14.3,14.3,0,0,0,22.02,18.327,5.04,5.04,0,0,1,30.6,13.733a10.1,10.1,0,0,0,3.2-1.223A5.057,5.057,0,0,1,31.587,15.3,10.047,10.047,0,0,0,34.48,14.5a10.237,10.237,0,0,1-2.513,2.609Zm0,0"/></svg>