<svg xmlns="http://www.w3.org/2000/svg" xmlns:xlink="http://www.w3.org/1999/xlink" width="62.432" height="62.432" viewBox="0 0 62.432 62.432"><defs><style>.a{fill:url(#a);}.b{fill:url(#b);}.c{fill:url(#c);}.d{fill:url(#d);}.e{fill:#fff;}</style><linearGradient id="a" x1="0.332" y1="0.141" x2="0.585" y2="0.682" gradientUnits="objectBoundingBox"><stop offset="0" stop-color="#00c3ff"/><stop offset="1" stop-color="#00b0ed"/></linearGradient><linearGradient id="b" x1="0.738" y1="0.628" x2="-0.899" y2="-0.25" gradientUnits="objectBoundingBox"><stop offset="0" stop-color="#00b0ed" stop-opacity="0"/><stop offset="1" stop-color="#00a2ce"/></linearGradient><linearGradient id="c" x1="0.5" y1="0.27" x2="0.5" y2="0.926" xlink:href="#b"/><linearGradient id="d" x1="0.946" y1="0.922" x2="0.342" y2="0.273" xlink:href="#b"/></defs><g transform="translate(0 0.001)"><path class="a" d="M51.265,61.362a188.571,188.571,0,0,1-40.1,0,11.368,11.368,0,0,1-10.1-10.1,188.566,188.566,0,0,1,0-40.1,11.368,11.368,0,0,1,10.1-10.1,188.567,188.567,0,0,1,40.1,0,11.368,11.368,0,0,1,10.1,10.1,188.567,188.567,0,0,1,0,40.1,11.367,11.367,0,0,1-10.1,10.1Zm0,0"/><path class="b" d="M83.285,38.743a10.087,10.087,0,0,0-8.96-8.961,167.394,167.394,0,0,0-35.582,0,10.089,10.089,0,0,0-8.961,8.961,167.39,167.39,0,0,0,0,35.581,10.088,10.088,0,0,0,8.961,8.961,167.327,167.327,0,0,0,35.581,0,10.087,10.087,0,0,0,8.961-8.961,167.327,167.327,0,0,0,0-35.581Zm0,0" transform="translate(-25.318 -25.319)"/><path class="c" d="M7.672,409.8q.064.647.133,1.295a11.368,11.368,0,0,0,10.1,10.1,188.566,188.566,0,0,0,40.1,0,11.367,11.367,0,0,0,10.1-10.1q.069-.647.134-1.295Zm0,0" transform="translate(-6.737 -359.835)"/><path class="d" d="M147.872,140.269,134.913,127.31a15.465,15.465,0,0,1-3.7,1.546,10.58,10.58,0,0,1-1.3.268,8.047,8.047,0,0,0-13.808,5.62c0,.161,0,.319.015.477a7.761,7.761,0,0,0,.146,1.132,22.044,22.044,0,0,1-13.636-5.453h0l-2.712-2.713s-3.182,5.553,1.5,9.767a8.926,8.926,0,0,0,.678.678l.06.065a7.884,7.884,0,0,1-3.53-.98,7.808,7.808,0,0,0,2.613,5.893l2.283,2.3a4.443,4.443,0,0,1-2-.191,7.691,7.691,0,0,0,2.3,3.62l3.2,3.216a16.561,16.561,0,0,1-9.7,2.16l19.406,18.961a188.774,188.774,0,0,0,19.992-1.069,11.368,11.368,0,0,0,10.1-10.1,188.868,188.868,0,0,0,1.055-22.243Zm0,0" transform="translate(-85.454 -111.247)"/><path class="e" d="M136.016,130.435a14.557,14.557,0,0,1-4.152,1.153l-.017-.1a7.724,7.724,0,0,0,3.063-4.181,15.466,15.466,0,0,1-3.7,1.546,10.666,10.666,0,0,1-1.3.268,8.047,8.047,0,0,0-13.808,5.62c0,.16,0,.319.015.477a7.761,7.761,0,0,0,.146,1.132,22.492,22.492,0,0,1-16.35-8.165s-3.583,6.251,2.441,10.521a8.391,8.391,0,0,1-3.736-.991s-.381,6.023,6.556,7.929c0,0-2.439.611-3.66.077a7.761,7.761,0,0,0,7.32,5.566,16.034,16.034,0,0,1-11.518,3.429A22.741,22.741,0,0,0,132.2,135.492q0-.235,0-.47c0-.093,0-.185,0-.279,0-.065,0-.131,0-.2a14.229,14.229,0,0,0,3.82-4.112Zm0,0" transform="translate(-85.45 -111.247)"/></g></svg>