<svg xmlns="http://www.w3.org/2000/svg" width="26.763" height="17.248" viewBox="0 0 26.763 17.248"><defs><style>.a{fill:#83868b;}</style></defs><g transform="translate(0 0)"><g transform="translate(0 0)"><path class="a" d="M21.527,64H2.909A2.9,2.9,0,0,0,0,66.875V77.8a1.158,1.158,0,0,0,1.164,1.15H3.55a2.916,2.916,0,0,0,5.7,0h8.263a2.916,2.916,0,0,0,5.7,0H25.6a1.158,1.158,0,0,0,1.164-1.15V69.174A5.212,5.212,0,0,0,21.527,64ZM1.164,66.875A1.737,1.737,0,0,1,2.909,65.15H18.618V70.9H1.164ZM6.4,80.1a1.725,1.725,0,1,1,1.745-1.725A1.737,1.737,0,0,1,6.4,80.1Zm13.963,0a1.725,1.725,0,1,1,1.745-1.725A1.737,1.737,0,0,1,20.363,80.1ZM25.6,77.8H23.213a2.916,2.916,0,0,0-5.7,0H9.25a2.916,2.916,0,0,0-5.7,0H1.164V72.049H25.6Zm0-6.9H19.781V65.15h1.745A4.053,4.053,0,0,1,25.6,69.174Z" transform="translate(0 -64)"/></g><g transform="translate(10.473 3.702)"><path class="a" d="M149.236,208h-4.654a.575.575,0,1,0,0,1.15h4.654a.575.575,0,1,0,0-1.15Z" transform="translate(-144 -208)"/></g></g></svg>