<svg xmlns="http://www.w3.org/2000/svg" width="43.894" height="43.894" viewBox="0 0 43.894 43.894"><defs><style>.a{fill:#fff;}</style></defs><path class="a" d="M224.113,216.263l7.139-4.112-7.139-4.112Zm0,0" transform="translate(-204.9 -190.204)"/><path class="a" d="M21.947,0A21.947,21.947,0,1,0,43.894,21.947,21.949,21.949,0,0,0,21.947,0ZM35.66,21.969a36.222,36.222,0,0,1-.565,6.6,3.436,3.436,0,0,1-2.418,2.417c-2.146.565-10.731.565-10.731.565s-8.563,0-10.731-.587A3.437,3.437,0,0,1,8.8,28.544a36.063,36.063,0,0,1-.565-6.6,36.2,36.2,0,0,1,.565-6.6,3.506,3.506,0,0,1,2.418-2.44c2.146-.565,10.731-.565,10.731-.565s8.585,0,10.731.587A3.437,3.437,0,0,1,35.1,15.35a34.374,34.374,0,0,1,.565,6.619Zm0,0"/></svg>