<svg xmlns="http://www.w3.org/2000/svg" width="61.84" height="43.298" viewBox="0 0 61.84 43.298"><defs><style>.a{fill:red;}.b{fill:#fff;}</style></defs><g transform="translate(0 0)"><path class="a" d="M60.566,6.775a7.748,7.748,0,0,0-5.45-5.451C50.276,0,30.919,0,30.919,0S11.563,0,6.724,1.274a7.906,7.906,0,0,0-5.45,5.5C0,11.614,0,21.649,0,21.649S0,31.735,1.273,36.523a7.749,7.749,0,0,0,5.451,5.451c4.89,1.324,24.2,1.324,24.2,1.324s19.356,0,24.2-1.274a7.748,7.748,0,0,0,5.451-5.45C61.839,31.735,61.839,21.7,61.839,21.7s.051-10.086-1.274-14.925Zm0,0" transform="translate(0)"/><path class="b" d="M204.969,121.026l16.1-9.271-16.1-9.271Zm0,0" transform="translate(-180.213 -90.106)"/></g></svg>